<svg version="1.1" id="Layer_1" xmlns="http://www.w3.org/2000/svg" xmlns:xlink="http://www.w3.org/1999/xlink" x="0px" y="0px"
	 width="100%" viewBox="0 0 1024 1024" enable-background="new 0 0 1024 1024" xml:space="preserve">
<path fill="#171A1F" opacity="1.000000" stroke="none" 
	d="
M454.000000,1025.000000 
	C302.666656,1025.000000 151.833328,1025.000000 1.000000,1025.000000 
	C1.000000,683.666687 1.000000,342.333344 1.000000,1.000000 
	C342.333344,1.000000 683.666687,1.000000 1025.000000,1.000000 
	C1025.000000,342.333344 1025.000000,683.666687 1025.000000,1025.000000 
	C834.833313,1025.000000 644.666687,1025.000000 454.000000,1025.000000 
M593.774231,447.601837 
	C589.472107,452.710571 585.170044,457.819275 580.263855,463.207550 
	C574.392761,468.604614 568.137512,473.645935 562.736328,479.478149 
	C553.551880,489.395599 548.797852,501.193451 549.878296,515.913696 
	C549.951721,537.277100 550.025146,558.640442 550.097900,580.587219 
	C551.386475,580.706726 552.674988,580.826294 554.643372,581.065735 
	C555.100952,581.032898 555.558472,581.000000 556.775024,580.960876 
	C556.962646,579.297119 557.150208,577.633423 557.541138,575.060059 
	C557.506714,554.988098 557.472229,534.916199 557.647522,514.078308 
	C557.223389,498.949310 563.929260,487.226166 575.028503,477.573578 
	C579.036621,474.087830 582.963989,470.509277 587.548401,466.713287 
	C591.075745,462.549194 594.603027,458.385071 598.690857,453.803955 
	C600.239136,450.155914 601.642395,446.436310 603.393372,442.888275 
	C604.347656,440.954559 605.593201,438.948364 607.226746,437.607635 
	C611.666809,433.963379 612.785767,427.898804 609.472595,423.393127 
	C606.282043,419.054291 599.826294,418.031647 595.195740,421.131653 
	C590.893921,424.011536 588.809082,431.108307 592.421387,434.693085 
	C596.618225,438.857849 595.975220,442.590515 593.774231,447.601837 
M556.300293,467.104950 
	C549.133789,472.916504 541.527649,478.308716 536.879639,487.106812 
	C538.686890,488.402527 540.248169,489.521942 541.326111,490.294769 
	C548.945618,483.694672 556.172852,477.434418 563.996399,470.920044 
	C577.806030,459.820587 582.620239,445.189087 580.992371,427.255493 
	C581.760620,426.286926 582.389343,425.150085 583.320496,424.378082 
	C588.182068,420.347504 588.924805,414.448883 585.042542,409.892334 
	C581.349365,405.557739 574.765503,405.148407 570.806091,409.007233 
	C566.534973,413.169891 566.901428,419.675171 571.365845,424.106934 
	C572.630249,425.362122 573.167847,427.349396 573.849365,429.905487 
	C574.425781,442.132294 571.901672,453.233429 562.332581,461.804718 
	C560.494629,463.450989 558.738220,465.188324 556.300293,467.104950 
M518.825317,445.495575 
	C519.954590,445.774078 521.075195,446.095673 522.214600,446.323395 
	C526.622498,447.204376 530.200195,445.692627 532.498962,441.969208 
	C534.910217,438.063690 534.577942,433.938599 531.785156,430.298767 
	C529.140747,426.852325 525.328857,426.347321 521.396240,427.299591 
	C516.700073,428.436768 514.448608,432.366547 513.721863,439.470459 
	C507.263824,443.171478 500.821869,446.900909 494.343872,450.566528 
	C485.887268,455.351807 477.402100,460.086609 468.313690,465.124512 
	C454.181091,476.628235 447.566895,491.455841 448.118866,509.695251 
	C448.435669,520.164246 448.115906,530.651367 448.194031,541.129517 
	C448.215729,544.040161 447.861115,546.293030 445.271301,548.438110 
	C440.635864,552.277466 440.748657,558.991455 444.898804,563.012207 
	C449.082306,567.065247 455.567688,566.706726 459.578156,562.200745 
	C463.316498,558.000549 462.687103,552.047546 458.471710,547.933594 
	C457.155060,546.648621 456.002594,544.486877 455.972565,542.706360 
	C455.770752,530.734375 455.839172,518.756531 455.921753,506.781311 
	C456.015015,493.259888 460.847015,481.835510 471.134979,472.842377 
	C472.329468,471.798248 473.177826,470.358185 474.900055,469.052429 
	C476.724487,468.006561 478.531525,466.928833 480.376251,465.919952 
	C492.916107,459.062134 505.463867,452.218811 518.825317,445.495575 
M340.181244,731.432495 
	C339.529907,731.304688 338.878662,731.066040 338.227173,731.065247 
	C316.409668,731.038391 294.592163,731.043213 272.774658,731.013245 
	C270.540070,731.010193 268.319611,731.409119 269.117126,734.142456 
	C269.485931,735.406494 271.672333,736.977722 273.044128,736.986816 
	C295.692749,737.137756 318.342865,737.061890 341.930603,737.078003 
	C363.948944,737.061462 385.967316,737.044922 408.696045,737.429260 
	C409.518066,737.529846 410.339966,737.717468 411.162140,737.718567 
	C442.482391,737.760132 473.802704,737.792419 505.122986,737.782837 
	C506.410950,737.782410 507.698761,737.366028 509.924835,737.184692 
	C530.683838,737.222961 551.442871,737.301392 572.201904,737.287842 
	C591.460938,737.275208 610.720032,737.164246 630.913635,737.209778 
	C674.463135,737.209778 718.012634,737.209778 761.655762,737.209778 
	C761.655762,734.829407 761.655762,733.113647 761.655762,731.029236 
	C754.843384,731.029236 748.378113,731.017029 741.912842,731.031250 
	C703.627502,731.115356 665.342163,731.205566 626.126404,731.112793 
	C587.111389,731.154175 548.096375,731.195618 508.145447,731.061768 
	C475.108948,731.108582 442.072418,731.155396 408.099884,731.063599 
	C387.677185,731.059448 367.254395,731.035217 346.831818,731.083252 
	C344.861176,731.087891 342.891602,731.540833 340.181244,731.432495 
M482.836609,487.267395 
	C495.034027,475.169495 510.735870,468.980988 525.911072,462.004761 
	C539.234558,455.879791 549.466614,447.455017 550.663391,431.709351 
	C550.929199,428.212341 551.608643,425.562836 554.267700,422.997009 
	C558.305359,419.100861 557.767944,412.290131 553.743835,408.669647 
	C549.727722,405.056366 544.199158,405.263184 540.256104,409.174225 
	C536.103821,413.292816 535.586487,418.947235 539.775940,422.916931 
	C542.927490,425.903137 542.975891,428.894653 542.519531,432.750732 
	C541.471130,441.608856 536.100647,447.403503 529.015869,451.427124 
	C519.652527,456.744781 509.632141,460.895416 500.178864,466.067902 
	C491.931671,470.580475 483.240570,474.708282 477.192291,483.292755 
	C472.520203,488.329651 469.499207,494.214844 469.015625,501.084137 
	C468.502167,508.376984 468.462982,515.702759 468.189117,523.013184 
	C468.082336,525.862732 468.042694,528.195862 472.182068,528.169312 
	C476.509918,528.141541 475.986603,525.464966 475.947998,522.816406 
	C475.771149,510.674194 475.023926,498.434784 482.836609,487.267395 
M668.659546,432.277130 
	C666.711121,418.154602 661.495972,405.472382 651.938843,394.756409 
	C638.899658,380.136292 622.269958,373.347351 602.708984,371.728485 
	C600.848389,366.466522 598.987793,361.204590 597.035645,355.225403 
	C590.883362,341.849091 582.019958,330.642609 569.892212,321.187164 
	C544.103821,302.076843 515.799011,297.148895 484.294678,306.159058 
	C477.985718,309.059601 471.378540,311.454773 465.429565,314.965363 
	C452.867157,322.378571 442.282257,332.014648 434.531464,345.357330 
	C430.055389,353.328918 425.349976,361.211456 424.180634,371.226105 
	C420.543427,371.968628 416.918579,372.779419 413.266968,373.442596 
	C389.149658,377.822479 372.061951,391.183746 362.214020,413.616455 
	C356.942810,425.623749 355.565704,438.186920 357.898743,451.914276 
	C363.912903,485.343384 391.994934,508.336639 425.976288,507.012329 
	C430.211548,507.012329 434.446808,507.012329 438.850433,507.012329 
	C439.490326,492.693451 442.570312,479.767242 451.591492,469.365997 
	C457.055969,463.065552 463.911316,457.971466 470.720642,451.899139 
	C480.946564,446.857635 491.114746,441.693451 501.429901,436.841583 
	C505.018188,435.153809 507.426239,432.959137 508.248413,428.365997 
	C512.823792,420.449768 519.863037,417.502777 528.743225,418.791595 
	C527.938782,400.752441 546.804199,389.759796 562.415955,404.788849 
	C564.715881,402.914948 567.015747,401.041046 570.110840,399.037323 
	C581.928894,395.550262 588.124939,398.445618 596.337158,411.185364 
	C599.415100,411.185364 602.391785,411.185364 605.825684,411.689423 
	C606.885864,412.019745 607.945984,412.350067 609.449524,412.950531 
	C609.621338,412.971344 609.793091,412.992157 610.346130,413.496307 
	C611.227966,414.004578 612.109863,414.512848 613.286560,415.553772 
	C614.176331,416.374969 615.066162,417.196136 616.185486,418.699310 
	C621.269836,426.538910 621.286621,435.664368 615.293823,440.918091 
	C611.971497,443.830719 610.620850,447.024780 609.667664,451.551300 
	C605.536011,457.509644 601.917603,463.924622 597.133484,469.302582 
	C591.974609,475.101807 585.630798,479.831726 579.975464,485.208618 
	C573.653931,491.218872 568.396057,497.912933 567.406860,507.551270 
	C576.883606,507.551270 585.959656,507.551270 595.932861,507.719971 
	C600.888428,507.478363 605.913940,507.682434 610.787415,506.917816 
	C631.685730,503.639008 648.193115,493.453949 659.825745,474.715424 
	C667.390381,461.811462 670.253662,447.916382 668.659546,432.277130 
M489.232452,572.052307 
	C486.306519,571.648987 485.041107,572.625916 485.207428,575.860107 
	C485.506165,581.669861 486.098938,587.604004 485.283936,593.302368 
	C483.635193,604.830139 487.804443,612.109375 498.695496,616.300293 
	C503.589630,618.183533 507.914215,623.647522 512.500488,623.651367 
	C517.277893,623.655396 521.825378,618.383667 526.886353,616.573242 
	C538.209045,612.522827 541.979370,604.961121 540.423645,593.332581 
	C539.514832,586.539978 540.258057,579.526428 540.258057,572.754089 
	C538.009399,572.345947 536.429504,572.059204 534.952759,571.791199 
	C532.000671,549.112488 526.761597,542.431641 511.277405,542.174255 
	C498.555725,543.740845 491.350311,551.408264 490.618439,564.138306 
	C490.467224,566.768799 490.266815,569.396545 489.232452,572.052307 
M732.197388,687.419678 
	C733.323730,685.811707 734.140930,683.301147 735.641846,682.787231 
	C738.594910,681.776001 742.512390,680.673889 744.936829,681.854980 
	C747.295044,683.003906 749.420959,686.867798 749.656433,689.704895 
	C750.294495,697.394043 749.875183,705.170959 749.875183,712.955383 
	C753.929565,712.955383 757.230469,712.955383 760.709656,712.955383 
	C760.709656,703.981018 761.216309,695.155640 760.581360,686.413269 
	C759.788513,675.496948 751.371582,669.439209 740.648438,671.870544 
	C736.624146,672.783020 732.973206,675.342224 728.809937,677.312561 
	C720.654053,669.779114 712.961548,669.128540 703.071777,675.897827 
	C702.634033,674.558899 702.216003,673.280212 701.906494,672.333496 
	C698.535156,672.333496 695.601196,672.333496 692.644775,672.333496 
	C692.644775,686.034485 692.644775,699.430176 692.644775,712.763855 
	C696.273621,712.763855 699.532532,712.763855 703.107971,712.763855 
	C703.107971,705.661072 702.765320,698.830688 703.262024,692.061890 
	C703.488342,688.977905 704.581238,685.073303 706.731201,683.267090 
	C708.819275,681.512939 713.330261,680.718201 715.732483,681.807068 
	C718.107666,682.883728 720.352783,686.742493 720.592346,689.556458 
	C721.247986,697.258606 720.818237,705.053101 720.818237,712.848511 
	C724.776428,712.848511 728.045349,712.848511 732.039978,712.848511 
	C732.039978,704.512512 732.039978,696.391846 732.197388,687.419678 
M487.084930,685.451050 
	C493.927002,687.884460 500.773376,690.305847 507.609222,692.756714 
	C510.695007,693.863159 513.840332,695.312378 513.464233,699.180298 
	C513.091064,703.017456 509.747559,703.981506 506.511230,704.457825 
	C498.792053,705.593933 491.784943,703.596497 485.233643,699.054138 
	C484.710388,700.142822 484.284882,701.026184 483.861084,701.910278 
	C480.965149,707.951660 480.953583,708.236206 487.240479,710.885742 
	C495.814514,714.499146 504.653259,715.204163 513.543030,712.102722 
	C520.511108,709.671692 524.519104,704.260925 524.630920,697.641785 
	C524.735779,691.434937 521.299988,686.890076 513.899475,684.266418 
	C509.211975,682.604614 504.314117,681.540955 499.524292,680.161377 
	C496.355957,679.248840 493.184174,677.941589 493.486572,673.990784 
	C493.811523,669.745422 497.190460,667.845642 500.860352,668.032593 
	C506.832977,668.336914 512.762024,669.496643 519.324219,670.377930 
	C519.966675,668.833618 521.075745,666.167419 522.283386,663.264282 
	C512.236572,658.005188 502.255371,656.680847 492.113892,660.856262 
	C481.655243,665.162354 479.260162,676.332642 487.084930,685.451050 
M300.517670,713.103516 
	C301.636505,711.845459 303.136475,710.762329 303.807983,709.299011 
	C306.650604,703.104553 309.280334,696.811096 311.925568,690.527649 
	C316.150482,680.492004 320.325867,670.435547 324.566986,660.280579 
	C314.692657,658.971863 314.675934,658.964478 310.985687,667.352966 
	C306.496338,677.557861 302.038696,687.776794 297.186493,698.859436 
	C291.809692,686.335205 286.879120,674.733704 281.806305,663.194702 
	C281.228607,661.880554 279.966675,660.106873 278.825195,659.946411 
	C275.650055,659.500061 272.371185,659.791443 268.531250,659.791443 
	C275.167877,675.492065 281.446381,690.340149 287.720184,705.190063 
	C291.076904,713.135315 291.073242,713.136841 300.517670,713.103516 
M596.047363,700.346313 
	C603.244263,715.087280 625.589233,718.648987 634.031677,706.131836 
	C632.257568,704.289856 630.445312,702.408325 628.696289,700.592346 
	C618.819092,707.540222 608.611877,705.473877 605.775452,695.609070 
	C616.298584,695.609070 626.614990,695.609070 637.036499,695.609070 
	C637.298828,686.690369 634.971924,679.743835 627.935852,674.994629 
	C620.520264,669.989197 610.427856,670.250793 603.111145,675.522400 
	C595.799377,680.790466 593.118896,689.659302 596.047363,700.346313 
M363.622925,695.534302 
	C363.622009,693.370972 363.685822,691.205200 363.607086,689.044739 
	C363.427307,684.112549 362.510529,679.443970 358.565857,675.946167 
	C351.110229,669.335083 335.091614,669.908875 327.732269,677.177063 
	C328.883118,679.291870 330.057281,681.449463 331.220123,683.586304 
	C345.110138,678.055969 352.320190,679.736389 352.423645,688.417603 
	C346.666931,688.934387 340.824860,689.004883 335.175903,690.085083 
	C328.660339,691.331055 325.451355,695.730530 325.607513,701.635071 
	C325.761536,707.458130 329.324951,711.590881 335.574493,713.062744 
	C341.886200,714.549194 347.753174,713.624329 352.827301,709.418823 
	C354.944458,715.978760 359.742310,711.868713 363.620331,713.141724 
	C363.620331,707.123230 363.620331,701.822449 363.622925,695.534302 
M680.346252,700.478027 
	C680.295532,695.657532 680.425598,690.826660 680.148315,686.019226 
	C679.802063,680.015198 676.743591,675.441833 671.164978,673.322083 
	C661.719543,669.733154 652.701904,671.142883 643.986023,676.670410 
	C645.489807,679.307007 646.778809,681.566895 648.057617,683.809082 
	C661.166748,677.907227 668.888916,679.641296 669.407654,688.537170 
	C663.513794,689.055054 657.544434,689.167542 651.739929,690.203857 
	C645.754211,691.272400 642.543396,695.471497 642.385681,700.918152 
	C642.232788,706.196350 645.435364,710.749573 650.907593,712.499756 
	C657.635742,714.651611 664.011597,714.020813 669.835510,708.994812 
	C670.010803,710.550598 670.147400,711.762756 670.262024,712.779907 
	C673.767273,712.779907 677.004395,712.779907 680.345337,712.779907 
	C680.345337,708.772644 680.345337,705.116638 680.346252,700.478027 
M415.738312,689.501770 
	C415.738312,683.731323 415.738312,677.960938 415.738312,672.268677 
	C411.808990,672.268677 408.558105,672.268677 404.933136,672.268677 
	C404.933136,679.374695 405.049622,686.174561 404.900757,692.968567 
	C404.748138,699.932617 400.804871,704.092590 394.732025,704.057068 
	C388.893219,704.022888 386.099670,700.580383 386.036377,693.153076 
	C385.976929,686.180115 386.023621,679.206238 386.023621,672.159546 
	C382.232819,672.159546 378.799622,672.159546 375.144714,672.159546 
	C375.144714,673.746277 375.143494,675.069946 375.144928,676.393677 
	C375.152344,683.385925 374.960236,690.385437 375.214844,697.368652 
	C375.605133,708.073669 383.069611,714.667603 393.725677,713.439209 
	C397.535370,713.000061 401.184082,711.164429 405.066864,709.914490 
	C405.141510,710.431824 405.316803,711.646545 405.476837,712.755737 
	C408.904083,712.755737 412.145172,712.755737 415.735168,712.755737 
	C415.735168,705.108093 415.735168,697.804504 415.738312,689.501770 
M523.450500,485.085876 
	C528.853027,480.440979 534.144775,475.658508 539.691650,471.192963 
	C544.479858,467.338135 549.998596,464.297119 554.371094,460.048889 
	C557.966675,456.555542 560.428345,451.867767 563.244751,447.611542 
	C564.612915,445.543884 564.048279,443.943573 561.595459,442.934326 
	C559.279724,441.981415 558.109680,442.268066 556.332642,444.508606 
	C552.054260,449.902863 547.413879,455.129974 542.259033,459.675537 
	C537.043030,464.275055 530.867004,467.766296 525.413025,472.120605 
	C518.799805,477.400330 513.498535,483.891479 511.179535,492.178925 
	C507.530121,505.221039 509.691376,518.531311 509.301208,531.642395 
	C512.182312,531.642395 514.409363,531.642395 516.869446,531.642395 
	C516.869446,522.792236 516.923035,514.318176 516.853271,505.845062 
	C516.792419,498.453583 518.739563,491.719208 523.450500,485.085876 
M548.288086,672.374268 
	C547.344666,671.435303 545.799805,670.615662 545.584778,669.532166 
	C545.156128,667.371704 545.457764,665.066284 545.457764,662.946289 
	C541.477661,662.946289 538.224121,662.946289 534.471924,662.946289 
	C534.471924,666.345703 534.471924,669.410095 534.471924,672.507996 
	C532.010193,672.687439 530.063049,672.829346 528.065063,672.975037 
	C528.065063,675.715271 528.065063,678.172546 528.065063,680.796021 
	C530.329651,680.959229 532.425171,681.110168 534.773376,681.279419 
	C534.773376,687.555237 534.755859,693.546509 534.778564,699.537659 
	C534.798950,704.913574 536.579895,709.483337 541.651794,711.906372 
	C547.183105,714.548767 552.785217,714.524719 558.544495,711.235046 
	C557.578430,708.521362 556.712952,706.090454 555.854675,703.679565 
	C549.133972,705.673340 546.022278,704.500366 545.747803,699.593811 
	C545.407349,693.509399 545.666260,687.391479 545.666260,680.904297 
	C549.207397,680.904297 552.472351,680.904297 556.137817,680.904297 
	C556.137817,679.041748 556.169128,677.561401 556.127563,676.083069 
	C556.095581,674.947388 555.971863,673.814270 555.866455,672.373413 
	C553.517456,672.373413 551.382874,672.373413 548.288086,672.374268 
M452.975616,681.855835 
	C453.004639,687.679138 452.972839,693.503540 453.076630,699.325500 
	C453.242096,708.604492 458.598053,713.824219 467.824890,713.817566 
	C476.202515,713.811523 477.382935,712.110657 474.381042,704.328491 
	C474.278931,704.063721 473.923859,703.896545 473.680664,703.690552 
	C467.804626,705.536743 464.266907,704.327454 464.040344,699.950928 
	C463.717163,693.707642 463.958099,687.435181 463.958099,680.768433 
	C467.800873,680.768433 471.046051,680.768433 474.364899,680.768433 
	C474.364899,677.776062 474.364899,675.215576 474.364899,672.275146 
	C470.803406,672.275146 467.548126,672.275146 464.004883,672.275146 
	C464.004883,668.952454 464.004883,666.010376 464.004883,662.888062 
	C460.278564,662.888062 456.854004,662.888062 453.087585,662.888062 
	C453.087585,666.156616 453.087585,669.108276 453.087585,672.241028 
	C450.840179,672.408997 448.918884,672.552551 446.718292,672.716980 
	C446.718292,675.574707 446.718292,678.138184 446.718292,680.866943 
	C448.792969,680.958069 450.602234,681.037598 452.975616,681.855835 
M428.147583,660.825684 
	C428.147583,678.104614 428.147583,695.383545 428.147583,712.703247 
	C431.993011,712.703247 435.354279,712.703247 438.656799,712.703247 
	C438.656799,693.886963 438.656799,675.456665 438.656799,656.570984 
	C435.751404,656.570984 433.073669,656.276062 430.526550,656.724060 
	C429.578918,656.890625 428.937012,658.795837 428.147583,660.825684 
M579.813354,684.316406 
	C583.284790,683.060730 586.756165,681.805054 590.389038,680.490967 
	C590.389038,677.933289 590.389038,674.866699 590.389038,670.466248 
	C585.351196,672.362244 581.024048,673.990723 576.633606,675.643066 
	C576.470032,674.855103 576.183533,673.475098 575.948486,672.343018 
	C572.531311,672.343018 569.447083,672.343018 566.406738,672.343018 
	C566.406738,686.068970 566.406738,699.449707 566.406738,712.844543 
	C570.021851,712.844543 573.285522,712.844543 576.965515,712.844543 
	C576.965515,706.024902 576.751709,699.408936 577.069824,692.818726 
	C577.198792,690.148254 578.487427,687.533752 579.813354,684.316406 
M496.900787,526.446167 
	C496.901398,518.281372 496.909180,510.116608 496.898834,501.951813 
	C496.894897,498.860718 497.750183,495.230042 492.638062,495.389252 
	C487.894989,495.536987 489.247437,499.121033 489.223938,501.640198 
	C489.115204,513.303040 489.170837,524.967651 489.208984,536.631409 
	C489.212982,537.846191 489.490295,539.060059 489.627991,540.170959 
	C497.283356,538.564819 497.416016,533.165344 496.900787,526.446167 
M475.932861,550.510864 
	C475.932190,547.527222 475.877045,544.542358 475.947601,541.560364 
	C476.007416,539.033569 475.888458,536.921448 472.426605,536.959351 
	C469.205627,536.994507 468.044098,538.435791 468.077759,541.545532 
	C468.187195,551.655762 468.229523,561.768127 468.139954,571.878296 
	C468.114410,574.760254 468.881073,576.059753 472.048859,576.040344 
	C475.161224,576.021240 476.044281,574.824341 475.980225,571.893738 
	C475.831757,565.100891 475.933960,558.302673 475.932861,550.510864 
M537.299316,524.760803 
	C537.301697,523.436218 537.652466,521.976135 537.205383,520.826294 
	C536.783691,519.741760 535.487671,518.212708 534.637390,518.250549 
	C533.099121,518.319214 530.352966,519.316772 530.296448,520.086792 
	C529.910156,525.354858 529.458740,530.779114 530.385132,535.907898 
	C530.788025,538.138245 534.398743,539.789124 537.294312,542.362427 
	C537.294312,536.210205 537.294312,530.953369 537.299316,524.760803 
M532.723694,497.326660 
	C527.375549,500.203949 531.113159,504.987366 529.717102,508.960297 
	C532.403809,508.960297 534.492432,508.960297 536.810669,508.960297 
	C537.008423,506.404846 536.957214,504.069244 537.415833,501.838440 
	C538.116821,498.428070 536.609802,497.214386 532.723694,497.326660 
z"/>
<path fill="#0D4D8C" opacity="1.000000" stroke="none" 
	d="
M424.701355,370.669434 
	C425.349976,361.211456 430.055389,353.328918 435.232330,345.159821 
	C448.396637,348.289734 460.874481,351.564240 473.319550,354.958954 
	C486.568268,358.572906 499.785980,362.300720 513.058044,366.173462 
	C513.098877,366.368103 513.195068,366.754059 513.115540,367.111420 
	C508.520508,371.548431 504.185791,375.852112 499.457825,379.668610 
	C480.091736,395.301056 460.694946,410.898621 441.115021,426.261200 
	C434.373810,431.550446 427.065613,436.117065 420.008789,440.563660 
	C420.679779,431.203979 421.230652,422.282288 422.075348,413.388489 
	C422.825226,405.493073 424.203033,397.649048 424.738007,389.744049 
	C425.166290,383.415680 424.745361,377.029785 424.701355,370.669434 
z"/>
<path fill="#143E80" opacity="1.000000" stroke="none" 
	d="
M424.440979,370.947754 
	C424.745361,377.029785 425.166290,383.415680 424.738007,389.744049 
	C424.203033,397.649048 422.825226,405.493073 422.075348,413.388489 
	C421.230652,422.282288 420.679779,431.203979 419.981689,440.822144 
	C419.939880,441.702667 419.917572,441.874573 419.486938,442.038452 
	C414.023163,442.863190 408.979279,443.774994 403.910187,444.513763 
	C388.537476,446.754181 373.154999,448.927612 357.776306,451.127106 
	C355.565704,438.186920 356.942810,425.623749 362.214020,413.616455 
	C372.061951,391.183746 389.149658,377.822479 413.266968,373.442596 
	C416.918579,372.779419 420.543427,371.968628 424.440979,370.947754 
z"/>
<path fill="#0B5F9A" opacity="1.000000" stroke="none" 
	d="
M419.895294,442.046448 
	C419.917572,441.874573 419.939880,441.702667 419.989319,441.272247 
	C427.065613,436.117065 434.373810,431.550446 441.115021,426.261200 
	C460.694946,410.898621 480.091736,395.301056 499.457825,379.668610 
	C504.185791,375.852112 508.520508,371.548431 513.412720,367.160522 
	C514.191223,366.902771 514.592957,366.953247 514.998901,367.432312 
	C512.803101,384.368439 510.541748,400.868195 508.449402,417.389374 
	C507.966583,421.201843 508.062592,425.087616 507.892273,428.939636 
	C507.426239,432.959137 505.018188,435.153809 501.429901,436.841583 
	C491.114746,441.693451 480.946564,446.857635 470.172058,451.797974 
	C453.081635,448.798309 436.539795,445.899780 419.973083,442.762451 
	C419.948151,442.523682 419.895294,442.046448 419.895294,442.046448 
z"/>
<path fill="#1199C1" opacity="1.000000" stroke="none" 
	d="
M514.994751,367.003723 
	C514.592957,366.953247 514.191223,366.902771 513.492249,366.803162 
	C513.195068,366.754059 513.098877,366.368103 513.046753,365.798859 
	C512.283752,363.390930 511.714111,361.481995 510.839783,359.724609 
	C502.944794,343.855438 494.970276,328.025787 487.098419,312.145203 
	C486.164185,310.260529 485.705536,308.140106 485.026428,306.128937 
	C515.799011,297.148895 544.103821,302.076843 569.765991,321.661377 
	C559.913513,330.111938 550.131592,338.021637 540.478027,346.084961 
	C532.239990,352.965912 524.149475,360.023468 515.744019,367.002625 
	C515.494263,367.002350 514.994751,367.003723 514.994751,367.003723 
z"/>
<path fill="#1B2F73" opacity="1.000000" stroke="none" 
	d="
M419.486938,442.038452 
	C419.895294,442.046448 419.948151,442.523682 419.968475,443.224731 
	C420.384033,450.833923 420.625610,457.755066 421.206604,464.647583 
	C422.394714,478.741791 423.765289,492.820587 425.060669,506.905731 
	C391.994934,508.336639 363.912903,485.343384 357.837524,451.520691 
	C373.154999,448.927612 388.537476,446.754181 403.910187,444.513763 
	C408.979279,443.774994 414.023163,442.863190 419.486938,442.038452 
z"/>
<path fill="#15ACCA" opacity="1.000000" stroke="none" 
	d="
M597.127197,355.942627 
	C598.987793,361.204590 600.848389,366.466522 602.945679,372.422546 
	C608.460449,388.076019 613.738647,403.035461 618.634155,417.996948 
	C617.486389,418.005127 616.721130,418.011230 615.955933,418.017334 
	C615.066162,417.196136 614.176331,416.374969 613.069092,414.950317 
	C611.889404,413.902222 610.927124,413.457581 609.964905,413.012939 
	C609.793091,412.992157 609.621338,412.971344 609.095947,412.480408 
	C607.617737,411.735291 606.493103,411.460327 605.368408,411.185364 
	C602.391785,411.185364 599.415100,411.185364 596.337158,411.185364 
	C588.124939,398.445618 581.928894,395.550262 569.339600,399.021393 
	C567.801575,398.704529 566.974487,398.504456 566.276794,398.087799 
	C551.122131,389.037445 535.960144,379.998749 520.878174,370.828430 
	C519.610840,370.057861 518.899780,368.372498 518.346619,367.064697 
	C536.261047,364.676910 553.767639,362.398132 571.253601,359.970001 
	C579.897888,358.769623 588.503845,357.293823 597.127197,355.942627 
z"/>
<path fill="#14A4C8" opacity="1.000000" stroke="none" 
	d="
M616.070679,418.358337 
	C616.721130,418.011230 617.486389,418.005127 618.884155,418.252991 
	C621.139038,423.334961 622.761353,428.162994 624.478088,433.272247 
	C630.929016,433.878571 637.454285,434.491913 643.971191,435.456238 
	C642.886475,436.925720 641.947327,438.233734 640.709839,439.129761 
	C635.382935,442.986786 634.874268,446.642059 639.017090,451.540771 
	C641.576294,454.566956 643.914124,457.782288 646.508484,460.776459 
	C650.710022,465.625549 655.040833,470.362640 659.317078,475.146973 
	C648.193115,493.453949 631.685730,503.639008 610.787415,506.917816 
	C605.913940,507.682434 600.888428,507.478363 595.493530,507.287842 
	C595.152100,506.368591 595.170715,505.848145 595.359314,505.399200 
	C601.727417,490.240326 608.125488,475.094116 614.486938,459.932465 
	C617.114502,453.670166 616.379517,452.229065 610.108337,451.013397 
	C610.620850,447.024780 611.971497,443.830719 615.293823,440.918091 
	C621.286621,435.664368 621.269836,426.538910 616.070679,418.358337 
M627.500488,437.070099 
	C626.702209,437.507812 625.173218,438.046722 625.217590,438.367767 
	C625.716248,441.968750 626.993225,444.930603 632.638550,444.155518 
	C630.857483,441.604706 629.437134,439.570465 627.500488,437.070099 
z"/>
<path fill="#24C8D8" opacity="1.000000" stroke="none" 
	d="
M512.082031,542.352356 
	C526.761597,542.431641 532.000671,549.112488 534.952759,571.791199 
	C536.429504,572.059204 538.009399,572.345947 540.258057,572.754089 
	C540.258057,579.526428 539.514832,586.539978 540.423645,593.332581 
	C541.979370,604.961121 538.209045,612.522827 526.886353,616.573242 
	C521.825378,618.383667 517.277893,623.655396 512.500488,623.651367 
	C507.914215,623.647522 503.589630,618.183533 498.695496,616.300293 
	C487.804443,612.109375 483.635193,604.830139 485.283936,593.302368 
	C486.098938,587.604004 485.506165,581.669861 485.207428,575.860107 
	C485.041107,572.625916 486.306519,571.648987 490.096680,572.044434 
	C493.575348,572.043701 496.189758,572.050903 499.286377,572.085876 
	C508.653656,572.113647 517.538757,572.113647 526.333435,572.113647 
	C528.281372,557.366638 523.447266,550.611145 511.005127,549.611633 
	C511.366058,546.931396 511.724060,544.641846 512.082031,542.352356 
M508.468903,601.879639 
	C508.105530,603.481934 507.742126,605.084229 507.359406,606.771851 
	C511.204651,606.771851 514.874634,606.771851 517.618530,606.771851 
	C517.877563,602.761230 517.155029,598.757446 518.575256,595.773621 
	C520.380066,591.981873 520.471985,589.135254 517.647705,586.363464 
	C514.746216,583.515747 511.246033,583.371094 508.192871,585.946411 
	C504.885193,588.736389 505.046844,592.102417 507.342072,595.734314 
	C508.280151,597.218750 508.284912,599.292908 508.468903,601.879639 
z"/>
<path fill="#2AC9D6" opacity="1.000000" stroke="none" 
	d="
M643.979553,435.105225 
	C637.454285,434.491913 630.929016,433.878571 624.478088,433.272247 
	C622.761353,428.162994 621.139038,423.334961 619.266785,418.250916 
	C613.738647,403.035461 608.460449,388.076019 603.070068,372.805176 
	C622.269958,373.347351 638.899658,380.136292 651.938843,394.756409 
	C661.495972,405.472382 666.711121,418.154602 668.452637,432.990967 
	C668.124329,436.498718 666.486877,437.278534 663.960999,437.026459 
	C657.302917,436.362000 650.640320,435.742554 643.979553,435.105225 
z"/>
<path fill="#0E77AA" opacity="1.000000" stroke="none" 
	d="
M484.660553,306.143982 
	C485.705536,308.140106 486.164185,310.260529 487.098419,312.145203 
	C494.970276,328.025787 502.944794,343.855438 510.839783,359.724609 
	C511.714111,361.481995 512.283752,363.390930 513.005981,365.604218 
	C499.785980,362.300720 486.568268,358.572906 473.319550,354.958954 
	C460.874481,351.564240 448.396637,348.289734 435.527618,344.976624 
	C442.282257,332.014648 452.867157,322.378571 465.429565,314.965363 
	C471.378540,311.454773 477.985718,309.059601 484.660553,306.143982 
z"/>
<path fill="#F5F5F5" opacity="1.000000" stroke="none" 
	d="
M732.118652,687.845459 
	C732.039978,696.391846 732.039978,704.512512 732.039978,712.848511 
	C728.045349,712.848511 724.776428,712.848511 720.818237,712.848511 
	C720.818237,705.053101 721.247986,697.258606 720.592346,689.556458 
	C720.352783,686.742493 718.107666,682.883728 715.732483,681.807068 
	C713.330261,680.718201 708.819275,681.512939 706.731201,683.267090 
	C704.581238,685.073303 703.488342,688.977905 703.262024,692.061890 
	C702.765320,698.830688 703.107971,705.661072 703.107971,712.763855 
	C699.532532,712.763855 696.273621,712.763855 692.644775,712.763855 
	C692.644775,699.430176 692.644775,686.034485 692.644775,672.333496 
	C695.601196,672.333496 698.535156,672.333496 701.906494,672.333496 
	C702.216003,673.280212 702.634033,674.558899 703.071777,675.897827 
	C712.961548,669.128540 720.654053,669.779114 728.809937,677.312561 
	C732.973206,675.342224 736.624146,672.783020 740.648438,671.870544 
	C751.371582,669.439209 759.788513,675.496948 760.581360,686.413269 
	C761.216309,695.155640 760.709656,703.981018 760.709656,712.955383 
	C757.230469,712.955383 753.929565,712.955383 749.875183,712.955383 
	C749.875183,705.170959 750.294495,697.394043 749.656433,689.704895 
	C749.420959,686.867798 747.295044,683.003906 744.936829,681.854980 
	C742.512390,680.673889 738.594910,681.776001 735.641846,682.787231 
	C734.140930,683.301147 733.323730,685.811707 732.118652,687.845459 
z"/>
<path fill="#2AC9D6" opacity="1.000000" stroke="none" 
	d="
M597.081421,355.584045 
	C588.503845,357.293823 579.897888,358.769623 571.253601,359.970001 
	C553.767639,362.398132 536.261047,364.676910 518.024719,367.042969 
	C516.855591,367.046722 516.424622,367.024811 515.993713,367.002869 
	C524.149475,360.023468 532.239990,352.965912 540.478027,346.084961 
	C550.131592,338.021637 559.913513,330.111938 569.946167,321.947876 
	C582.019958,330.642609 590.883362,341.849091 597.081421,355.584045 
z"/>
<path fill="#0D4D8C" opacity="1.000000" stroke="none" 
	d="
M425.518494,506.959045 
	C423.765289,492.820587 422.394714,478.741791 421.206604,464.647583 
	C420.625610,457.755066 420.384033,450.833923 419.993408,443.463501 
	C436.539795,445.899780 453.081635,448.798309 469.882629,452.016113 
	C463.911316,457.971466 457.055969,463.065552 451.591492,469.365997 
	C442.570312,479.767242 439.490326,492.693451 438.850433,507.012329 
	C434.446808,507.012329 430.211548,507.012329 425.518494,506.959045 
z"/>
<path fill="#1091BD" opacity="1.000000" stroke="none" 
	d="
M515.744019,367.002625 
	C516.424622,367.024811 516.855591,367.046722 517.608398,367.090393 
	C518.899780,368.372498 519.610840,370.057861 520.878174,370.828430 
	C535.960144,379.998749 551.122131,389.037445 566.276794,398.087799 
	C566.974487,398.504456 567.801575,398.704529 568.942017,399.086304 
	C567.015747,401.041046 564.715881,402.914948 562.413818,404.786133 
	C546.804199,389.759796 527.938782,400.752441 528.743225,418.791595 
	C519.863037,417.502777 512.823792,420.449768 508.070343,428.652832 
	C508.062592,425.087616 507.966583,421.201843 508.449402,417.389374 
	C510.541748,400.868195 512.803101,384.368439 514.998901,367.432312 
	C514.994751,367.003723 515.494263,367.002350 515.744019,367.002625 
z"/>
<path fill="#F7F8F7" opacity="1.000000" stroke="none" 
	d="
M486.803772,685.217651 
	C479.260162,676.332642 481.655243,665.162354 492.113892,660.856262 
	C502.255371,656.680847 512.236572,658.005188 522.283386,663.264282 
	C521.075745,666.167419 519.966675,668.833618 519.324219,670.377930 
	C512.762024,669.496643 506.832977,668.336914 500.860352,668.032593 
	C497.190460,667.845642 493.811523,669.745422 493.486572,673.990784 
	C493.184174,677.941589 496.355957,679.248840 499.524292,680.161377 
	C504.314117,681.540955 509.211975,682.604614 513.899475,684.266418 
	C521.299988,686.890076 524.735779,691.434937 524.630920,697.641785 
	C524.519104,704.260925 520.511108,709.671692 513.543030,712.102722 
	C504.653259,715.204163 495.814514,714.499146 487.240479,710.885742 
	C480.953583,708.236206 480.965149,707.951660 483.861084,701.910278 
	C484.284882,701.026184 484.710388,700.142822 485.233643,699.054138 
	C491.784943,703.596497 498.792053,705.593933 506.511230,704.457825 
	C509.747559,703.981506 513.091064,703.017456 513.464233,699.180298 
	C513.840332,695.312378 510.695007,693.863159 507.609222,692.756714 
	C500.773376,690.305847 493.927002,687.884460 486.803772,685.217651 
z"/>
<path fill="#F7F8F7" opacity="1.000000" stroke="none" 
	d="
M300.118683,713.106567 
	C291.073242,713.136841 291.076904,713.135315 287.720184,705.190063 
	C281.446381,690.340149 275.167877,675.492065 268.531250,659.791443 
	C272.371185,659.791443 275.650055,659.500061 278.825195,659.946411 
	C279.966675,660.106873 281.228607,661.880554 281.806305,663.194702 
	C286.879120,674.733704 291.809692,686.335205 297.186493,698.859436 
	C302.038696,687.776794 306.496338,677.557861 310.985687,667.352966 
	C314.675934,658.964478 314.692657,658.971863 324.566986,660.280579 
	C320.325867,670.435547 316.150482,680.492004 311.925568,690.527649 
	C309.280334,696.811096 306.650604,703.104553 303.807983,709.299011 
	C303.136475,710.762329 301.636505,711.845459 300.118683,713.106567 
z"/>
<path fill="#F5F5F5" opacity="1.000000" stroke="none" 
	d="
M595.940125,699.974915 
	C593.118896,689.659302 595.799377,680.790466 603.111145,675.522400 
	C610.427856,670.250793 620.520264,669.989197 627.935852,674.994629 
	C634.971924,679.743835 637.298828,686.690369 637.036499,695.609070 
	C626.614990,695.609070 616.298584,695.609070 605.775452,695.609070 
	C608.611877,705.473877 618.819092,707.540222 628.696289,700.592346 
	C630.445312,702.408325 632.257568,704.289856 634.031677,706.131836 
	C625.589233,718.648987 603.244263,715.087280 595.940125,699.974915 
M607.295776,684.247681 
	C606.616699,685.671570 605.937561,687.095398 605.010742,689.038635 
	C612.757996,689.038635 619.765503,689.038635 626.855225,689.038635 
	C624.272766,679.629089 615.472229,677.262451 607.295776,684.247681 
z"/>
<path fill="#F5F5F5" opacity="1.000000" stroke="none" 
	d="
M363.621643,696.028015 
	C363.620331,701.822449 363.620331,707.123230 363.620331,713.141724 
	C359.742310,711.868713 354.944458,715.978760 352.827301,709.418823 
	C347.753174,713.624329 341.886200,714.549194 335.574493,713.062744 
	C329.324951,711.590881 325.761536,707.458130 325.607513,701.635071 
	C325.451355,695.730530 328.660339,691.331055 335.175903,690.085083 
	C340.824860,689.004883 346.666931,688.934387 352.423431,688.415466 
	C352.320190,679.736389 345.110138,678.055969 331.220123,683.586304 
	C330.057281,681.449463 328.883118,679.291870 327.732269,677.177063 
	C335.091614,669.908875 351.110229,669.335083 358.565857,675.946167 
	C362.510529,679.443970 363.427307,684.112549 363.607086,689.044739 
	C363.685822,691.205200 363.622009,693.370972 363.621643,696.028015 
M352.791901,696.325623 
	C348.738800,696.220276 344.618347,695.654053 340.665100,696.231873 
	C339.038391,696.469604 336.495728,699.315674 336.655731,700.713623 
	C336.867981,702.567688 339.018402,705.117188 340.862671,705.699585 
	C347.031006,707.647095 352.182587,703.731506 352.791901,696.325623 
z"/>
<path fill="#F7F8F7" opacity="1.000000" stroke="none" 
	d="
M680.345825,700.969360 
	C680.345337,705.116638 680.345337,708.772644 680.345337,712.779907 
	C677.004395,712.779907 673.767273,712.779907 670.262024,712.779907 
	C670.147400,711.762756 670.010803,710.550598 669.835510,708.994812 
	C664.011597,714.020813 657.635742,714.651611 650.907593,712.499756 
	C645.435364,710.749573 642.232788,706.196350 642.385681,700.918152 
	C642.543396,695.471497 645.754211,691.272400 651.739929,690.203857 
	C657.544434,689.167542 663.513794,689.055054 669.407654,688.537170 
	C668.888916,679.641296 661.166748,677.907227 648.057617,683.809082 
	C646.778809,681.566895 645.489807,679.307007 643.986023,676.670410 
	C652.701904,671.142883 661.719543,669.733154 671.164978,673.322083 
	C676.743591,675.441833 679.802063,680.015198 680.148315,686.019226 
	C680.425598,690.826660 680.295532,695.657532 680.345825,700.969360 
M661.246765,705.992737 
	C668.102783,704.460388 669.714172,702.527649 669.433411,695.811646 
	C666.520508,695.811646 663.587341,695.778992 660.655212,695.819885 
	C656.963257,695.871399 653.202637,696.471741 653.246460,701.107849 
	C653.287781,705.481689 656.914429,705.988464 661.246765,705.992737 
z"/>
<path fill="#1199C1" opacity="1.000000" stroke="none" 
	d="
M609.888000,451.282349 
	C616.379517,452.229065 617.114502,453.670166 614.486938,459.932465 
	C608.125488,475.094116 601.727417,490.240326 595.359314,505.399200 
	C595.170715,505.848145 595.152100,506.368591 595.044922,507.203491 
	C585.959656,507.551270 576.883606,507.551270 567.406860,507.551270 
	C568.396057,497.912933 573.653931,491.218872 579.975464,485.208618 
	C585.630798,479.831726 591.974609,475.101807 597.133484,469.302582 
	C601.917603,463.924622 605.536011,457.509644 609.888000,451.282349 
z"/>
<path fill="#F5F5F5" opacity="1.000000" stroke="none" 
	d="
M415.736755,690.001343 
	C415.735168,697.804504 415.735168,705.108093 415.735168,712.755737 
	C412.145172,712.755737 408.904083,712.755737 405.476837,712.755737 
	C405.316803,711.646545 405.141510,710.431824 405.066864,709.914490 
	C401.184082,711.164429 397.535370,713.000061 393.725677,713.439209 
	C383.069611,714.667603 375.605133,708.073669 375.214844,697.368652 
	C374.960236,690.385437 375.152344,683.385925 375.144928,676.393677 
	C375.143494,675.069946 375.144714,673.746277 375.144714,672.159546 
	C378.799622,672.159546 382.232819,672.159546 386.023621,672.159546 
	C386.023621,679.206238 385.976929,686.180115 386.036377,693.153076 
	C386.099670,700.580383 388.893219,704.022888 394.732025,704.057068 
	C400.804871,704.092590 404.748138,699.932617 404.900757,692.968567 
	C405.049622,686.174561 404.933136,679.374695 404.933136,672.268677 
	C408.558105,672.268677 411.808990,672.268677 415.738312,672.268677 
	C415.738312,677.960938 415.738312,683.731323 415.736755,690.001343 
z"/>
<path fill="#0D4D8C" opacity="1.000000" stroke="none" 
	d="
M477.743439,482.959930 
	C483.240570,474.708282 491.931671,470.580475 500.178864,466.067902 
	C509.632141,460.895416 519.652527,456.744781 529.015869,451.427124 
	C536.100647,447.403503 541.471130,441.608856 542.519531,432.750732 
	C542.975891,428.894653 542.927490,425.903137 539.775940,422.916931 
	C535.586487,418.947235 536.103821,413.292816 540.256104,409.174225 
	C544.199158,405.263184 549.727722,405.056366 553.743835,408.669647 
	C557.767944,412.290131 558.305359,419.100861 554.267700,422.997009 
	C551.608643,425.562836 550.929199,428.212341 550.663391,431.709351 
	C549.466614,447.455017 539.234558,455.879791 525.911072,462.004761 
	C510.735870,468.980988 495.034027,475.169495 482.468140,486.978333 
	C482.305817,483.509216 480.458496,482.727753 477.743439,482.959930 
M548.689392,411.925781 
	C546.769653,412.705322 544.542725,413.133636 543.068726,414.422791 
	C542.401245,415.006561 542.730835,417.636688 543.481934,418.747681 
	C545.048584,421.065033 547.438904,421.799530 549.846802,419.719055 
	C552.909058,417.073212 552.004272,414.570251 548.689392,411.925781 
z"/>
<path fill="#1091BD" opacity="1.000000" stroke="none" 
	d="
M474.186646,469.101624 
	C473.177826,470.358185 472.329468,471.798248 471.134979,472.842377 
	C460.847015,481.835510 456.015015,493.259888 455.921753,506.781311 
	C455.839172,518.756531 455.770752,530.734375 455.972565,542.706360 
	C456.002594,544.486877 457.155060,546.648621 458.471710,547.933594 
	C462.687103,552.047546 463.316498,558.000549 459.578156,562.200745 
	C455.567688,566.706726 449.082306,567.065247 444.898804,563.012207 
	C440.748657,558.991455 440.635864,552.277466 445.271301,548.438110 
	C447.861115,546.293030 448.215729,544.040161 448.194031,541.129517 
	C448.115906,530.651367 448.435669,520.164246 448.118866,509.695251 
	C447.566895,491.455841 454.181091,476.628235 468.644745,465.369751 
	C470.712738,466.777191 472.449677,467.939392 474.186646,469.101624 
M453.882874,559.824951 
	C454.603821,557.774658 456.080048,555.591492 455.751617,553.725891 
	C455.565918,552.671021 452.098419,551.170837 450.685211,551.632996 
	C449.169281,552.128662 447.341949,554.729980 447.405975,556.342712 
	C447.527466,559.404724 449.998627,560.663330 453.882874,559.824951 
z"/>
<path fill="#24C8D8" opacity="1.000000" stroke="none" 
	d="
M523.240173,485.383667 
	C518.739563,491.719208 516.792419,498.453583 516.853271,505.845062 
	C516.923035,514.318176 516.869446,522.792236 516.869446,531.642395 
	C514.409363,531.642395 512.182312,531.642395 509.301208,531.642395 
	C509.691376,518.531311 507.530121,505.221039 511.179535,492.178925 
	C513.498535,483.891479 518.799805,477.400330 525.413025,472.120605 
	C530.867004,467.766296 537.043030,464.275055 542.259033,459.675537 
	C547.413879,455.129974 552.054260,449.902863 556.332642,444.508606 
	C558.109680,442.268066 559.279724,441.981415 561.595459,442.934326 
	C564.048279,443.943573 564.612915,445.543884 563.244751,447.611542 
	C560.428345,451.867767 557.966675,456.555542 554.371094,460.048889 
	C549.998596,464.297119 544.479858,467.338135 539.691650,471.192963 
	C534.144775,475.658508 528.853027,480.440979 523.240173,485.383667 
z"/>
<path fill="#F7F8F7" opacity="1.000000" stroke="none" 
	d="
M548.768188,672.373840 
	C551.382874,672.373413 553.517456,672.373413 555.866455,672.373413 
	C555.971863,673.814270 556.095581,674.947388 556.127563,676.083069 
	C556.169128,677.561401 556.137817,679.041748 556.137817,680.904297 
	C552.472351,680.904297 549.207397,680.904297 545.666260,680.904297 
	C545.666260,687.391479 545.407349,693.509399 545.747803,699.593811 
	C546.022278,704.500366 549.133972,705.673340 555.854675,703.679565 
	C556.712952,706.090454 557.578430,708.521362 558.544495,711.235046 
	C552.785217,714.524719 547.183105,714.548767 541.651794,711.906372 
	C536.579895,709.483337 534.798950,704.913574 534.778564,699.537659 
	C534.755859,693.546509 534.773376,687.555237 534.773376,681.279419 
	C532.425171,681.110168 530.329651,680.959229 528.065063,680.796021 
	C528.065063,678.172546 528.065063,675.715271 528.065063,672.975037 
	C530.063049,672.829346 532.010193,672.687439 534.471924,672.507996 
	C534.471924,669.410095 534.471924,666.345703 534.471924,662.946289 
	C538.224121,662.946289 541.477661,662.946289 545.457764,662.946289 
	C545.457764,665.066284 545.156128,667.371704 545.584778,669.532166 
	C545.799805,670.615662 547.344666,671.435303 548.768188,672.373840 
z"/>
<path fill="#15ACCA" opacity="1.000000" stroke="none" 
	d="
M643.971191,435.456238 
	C650.640320,435.742554 657.302917,436.362000 663.960999,437.026459 
	C666.486877,437.278534 668.124329,436.498718 668.425415,433.387512 
	C670.253662,447.916382 667.390381,461.811462 659.571411,474.931213 
	C655.040833,470.362640 650.710022,465.625549 646.508484,460.776459 
	C643.914124,457.782288 641.576294,454.566956 639.017090,451.540771 
	C634.874268,446.642059 635.382935,442.986786 640.709839,439.129761 
	C641.947327,438.233734 642.886475,436.925720 643.971191,435.456238 
z"/>
<path fill="#F5F5F5" opacity="1.000000" stroke="none" 
	d="
M452.693542,681.486450 
	C450.602234,681.037598 448.792969,680.958069 446.718292,680.866943 
	C446.718292,678.138184 446.718292,675.574707 446.718292,672.716980 
	C448.918884,672.552551 450.840179,672.408997 453.087585,672.241028 
	C453.087585,669.108276 453.087585,666.156616 453.087585,662.888062 
	C456.854004,662.888062 460.278564,662.888062 464.004883,662.888062 
	C464.004883,666.010376 464.004883,668.952454 464.004883,672.275146 
	C467.548126,672.275146 470.803406,672.275146 474.364899,672.275146 
	C474.364899,675.215576 474.364899,677.776062 474.364899,680.768433 
	C471.046051,680.768433 467.800873,680.768433 463.958099,680.768433 
	C463.958099,687.435181 463.717163,693.707642 464.040344,699.950928 
	C464.266907,704.327454 467.804626,705.536743 473.683655,703.687195 
	C473.923859,703.896545 474.278931,704.063721 474.381042,704.328491 
	C477.382935,712.110657 476.202515,713.811523 467.824890,713.817566 
	C458.598053,713.824219 453.242096,708.604492 453.076630,699.325500 
	C452.972839,693.503540 453.004639,687.679138 452.693542,681.486450 
z"/>
<path fill="#1091BD" opacity="1.000000" stroke="none" 
	d="
M627.056824,731.293701 
	C665.342163,731.205566 703.627502,731.115356 741.912842,731.031250 
	C748.378113,731.017029 754.843384,731.029236 761.655762,731.029236 
	C761.655762,733.113647 761.655762,734.829407 761.655762,737.209778 
	C718.012634,737.209778 674.463135,737.209778 630.401489,736.807190 
	C628.945190,734.700989 628.001038,732.997314 627.056824,731.293701 
z"/>
<path fill="#0E77AA" opacity="1.000000" stroke="none" 
	d="
M626.591614,731.203247 
	C628.001038,732.997314 628.945190,734.700989 629.934204,736.750610 
	C610.720032,737.164246 591.460938,737.275208 572.201904,737.287842 
	C551.442871,737.301392 530.683838,737.222961 509.450165,736.737427 
	C509.010773,734.605774 509.046082,732.921387 509.081360,731.237061 
	C548.096375,731.195618 587.111389,731.154175 626.591614,731.203247 
z"/>
<path fill="#0D4D8C" opacity="1.000000" stroke="none" 
	d="
M508.613403,731.149414 
	C509.046082,732.921387 509.010773,734.605774 508.981079,736.716797 
	C507.698761,737.366028 506.410950,737.782410 505.122986,737.782837 
	C473.802704,737.792419 442.482391,737.760132 411.162140,737.718567 
	C410.339966,737.717468 409.518066,737.529846 408.398315,736.857727 
	C408.412384,734.591553 408.724152,732.896851 409.035919,731.202271 
	C442.072418,731.155396 475.108948,731.108582 508.613403,731.149414 
z"/>
<path fill="#F5F5F5" opacity="1.000000" stroke="none" 
	d="
M428.151642,660.367004 
	C428.937012,658.795837 429.578918,656.890625 430.526550,656.724060 
	C433.073669,656.276062 435.751404,656.570984 438.656799,656.570984 
	C438.656799,675.456665 438.656799,693.886963 438.656799,712.703247 
	C435.354279,712.703247 431.993011,712.703247 428.147583,712.703247 
	C428.147583,695.383545 428.147583,678.104614 428.151642,660.367004 
z"/>
<path fill="#F5F5F5" opacity="1.000000" stroke="none" 
	d="
M579.530884,684.605103 
	C578.487427,687.533752 577.198792,690.148254 577.069824,692.818726 
	C576.751709,699.408936 576.965515,706.024902 576.965515,712.844543 
	C573.285522,712.844543 570.021851,712.844543 566.406738,712.844543 
	C566.406738,699.449707 566.406738,686.068970 566.406738,672.343018 
	C569.447083,672.343018 572.531311,672.343018 575.948486,672.343018 
	C576.183533,673.475098 576.470032,674.855103 576.633606,675.643066 
	C581.024048,673.990723 585.351196,672.362244 590.389038,670.466248 
	C590.389038,674.866699 590.389038,677.933289 590.389038,680.490967 
	C586.756165,681.805054 583.284790,683.060730 579.530884,684.605103 
z"/>
<path fill="#24C8D8" opacity="1.000000" stroke="none" 
	d="
M550.098633,580.003845 
	C550.025146,558.640442 549.951721,537.277100 550.402283,515.442017 
	C553.096802,514.928345 555.267273,514.886292 557.437805,514.844238 
	C557.472229,534.916199 557.506714,554.988098 557.163452,575.690613 
	C556.529236,577.869812 556.272644,579.418518 556.016052,580.967163 
	C555.558472,581.000000 555.100952,581.032898 554.050659,580.780029 
	C552.338135,580.330811 551.218384,580.167358 550.098633,580.003845 
z"/>
<path fill="#15ACCA" opacity="1.000000" stroke="none" 
	d="
M557.542664,514.461304 
	C555.267273,514.886292 553.096802,514.928345 550.469360,514.976318 
	C548.797852,501.193451 553.551880,489.395599 562.736328,479.478149 
	C568.137512,473.645935 574.392761,468.604614 580.932190,463.091827 
	C583.376404,464.308441 585.152283,465.640778 586.928223,466.973083 
	C582.963989,470.509277 579.036621,474.087830 575.028503,477.573578 
	C563.929260,487.226166 557.223389,498.949310 557.542664,514.461304 
z"/>
<path fill="#1B2F73" opacity="1.000000" stroke="none" 
	d="
M340.992645,737.036865 
	C318.342865,737.061890 295.692749,737.137756 273.044128,736.986816 
	C271.672333,736.977722 269.485931,735.406494 269.117126,734.142456 
	C268.319611,731.409119 270.540070,731.010193 272.774658,731.013245 
	C294.592163,731.043213 316.409668,731.038391 338.227173,731.065247 
	C338.878662,731.066040 339.529907,731.304688 340.577454,732.052368 
	C340.979980,734.127075 340.986298,735.581970 340.992645,737.036865 
z"/>
<path fill="#15ACCA" opacity="1.000000" stroke="none" 
	d="
M474.543335,469.077026 
	C472.449677,467.939392 470.712738,466.777191 468.952515,465.229065 
	C477.402100,460.086609 485.887268,455.351807 494.343872,450.566528 
	C500.821869,446.900909 507.263824,443.171478 514.319946,439.102112 
	C516.313416,438.471863 517.708862,438.209930 519.257324,438.174347 
	C519.634338,438.897461 519.858398,439.394196 520.061707,440.249146 
	C519.363708,442.195190 518.686401,443.783020 518.009094,445.370850 
	C505.463867,452.218811 492.916107,459.062134 480.376251,465.919952 
	C478.531525,466.928833 476.724487,468.006561 474.543335,469.077026 
z"/>
<path fill="#143E80" opacity="1.000000" stroke="none" 
	d="
M341.461609,737.057373 
	C340.986298,735.581970 340.979980,734.127075 340.947571,732.228882 
	C342.891602,731.540833 344.861176,731.087891 346.831818,731.083252 
	C367.254395,731.035217 387.677185,731.059448 408.567902,731.132935 
	C408.724152,732.896851 408.412384,734.591553 408.043152,736.657288 
	C385.967316,737.044922 363.948944,737.061462 341.461609,737.057373 
z"/>
<path fill="#15ACCA" opacity="1.000000" stroke="none" 
	d="
M580.858337,427.975525 
	C582.620239,445.189087 577.806030,459.820587 563.322388,471.036438 
	C558.779541,472.358459 557.055786,470.698120 556.944275,466.883667 
	C558.738220,465.188324 560.494629,463.450989 562.332581,461.804718 
	C571.901672,453.233429 574.425781,442.132294 574.333252,429.451660 
	C576.830933,428.657074 578.844604,428.316284 580.858337,427.975525 
z"/>
<path fill="#143E80" opacity="1.000000" stroke="none" 
	d="
M477.467865,483.126343 
	C480.458496,482.727753 482.305817,483.509216 482.162628,487.149506 
	C475.023926,498.434784 475.771149,510.674194 475.947998,522.816406 
	C475.986603,525.464966 476.509918,528.141541 472.182068,528.169312 
	C468.042694,528.195862 468.082336,525.862732 468.189117,523.013184 
	C468.462982,515.702759 468.502167,508.376984 469.015625,501.084137 
	C469.499207,494.214844 472.520203,488.329651 477.467865,483.126343 
z"/>
<path fill="#0E77AA" opacity="1.000000" stroke="none" 
	d="
M594.157349,447.028931 
	C595.975220,442.590515 596.618225,438.857849 592.421387,434.693085 
	C588.809082,431.108307 590.893921,424.011536 595.195740,421.131653 
	C599.826294,418.031647 606.282043,419.054291 609.472595,423.393127 
	C612.785767,427.898804 611.666809,433.963379 607.226746,437.607635 
	C605.593201,438.948364 604.347656,440.954559 603.393372,442.888275 
	C601.642395,446.436310 600.239136,450.155914 598.378052,453.581970 
	C597.797607,450.610779 599.020996,446.941223 594.157349,447.028931 
M601.454224,424.925842 
	C598.029236,425.392212 595.632874,427.059052 596.917297,430.734375 
	C597.413879,432.155365 599.817261,433.829193 601.256592,433.745667 
	C602.726196,433.660370 605.250732,431.520020 605.211243,430.350403 
	C605.150085,428.542847 603.300903,426.795715 601.454224,424.925842 
z"/>
<path fill="#0B5F9A" opacity="1.000000" stroke="none" 
	d="
M496.899567,526.933044 
	C497.416016,533.165344 497.283356,538.564819 489.627991,540.170959 
	C489.490295,539.060059 489.212982,537.846191 489.208984,536.631409 
	C489.170837,524.967651 489.115204,513.303040 489.223938,501.640198 
	C489.247437,499.121033 487.894989,495.536987 492.638062,495.389252 
	C497.750183,495.230042 496.894897,498.860718 496.898834,501.951813 
	C496.909180,510.116608 496.901398,518.281372 496.899567,526.933044 
z"/>
<path fill="#143E80" opacity="1.000000" stroke="none" 
	d="
M475.933716,551.008728 
	C475.933960,558.302673 475.831757,565.100891 475.980225,571.893738 
	C476.044281,574.824341 475.161224,576.021240 472.048859,576.040344 
	C468.881073,576.059753 468.114410,574.760254 468.139954,571.878296 
	C468.229523,561.768127 468.187195,551.655762 468.077759,541.545532 
	C468.044098,538.435791 469.205627,536.994507 472.426605,536.959351 
	C475.888458,536.921448 476.007416,539.033569 475.947601,541.560364 
	C475.877045,544.542358 475.932190,547.527222 475.933716,551.008728 
z"/>
<path fill="#14A4C8" opacity="1.000000" stroke="none" 
	d="
M498.804199,572.058105 
	C496.189758,572.050903 493.575348,572.043701 490.525024,572.031006 
	C490.266815,569.396545 490.467224,566.768799 490.618439,564.138306 
	C491.350311,551.408264 498.555725,543.740845 511.679749,542.263306 
	C511.724060,544.641846 511.366058,546.931396 510.687683,549.774536 
	C504.375671,551.950989 499.800598,555.169067 498.924835,561.733093 
	C498.472961,565.119812 498.818787,568.612976 498.804199,572.058105 
z"/>
<path fill="#2AC9D6" opacity="1.000000" stroke="none" 
	d="
M580.925354,427.615509 
	C578.844604,428.316284 576.830933,428.657074 574.427979,428.999390 
	C573.167847,427.349396 572.630249,425.362122 571.365845,424.106934 
	C566.901428,419.675171 566.534973,413.169891 570.806091,409.007233 
	C574.765503,405.148407 581.349365,405.557739 585.042542,409.892334 
	C588.924805,414.448883 588.182068,420.347504 583.320496,424.378082 
	C582.389343,425.150085 581.760620,426.286926 580.925354,427.615509 
M576.777039,420.654877 
	C579.892639,420.810120 582.239624,419.456757 581.884949,416.269440 
	C581.697449,414.584991 579.909607,412.341949 578.337158,411.786163 
	C577.124023,411.357391 574.455139,412.739288 573.608276,414.066010 
	C571.882996,416.768951 573.258423,419.039154 576.777039,420.654877 
z"/>
<path fill="#0E77AA" opacity="1.000000" stroke="none" 
	d="
M518.417236,445.433228 
	C518.686401,443.783020 519.363708,442.195190 520.369751,440.391052 
	C521.574158,440.617950 522.724792,441.652954 523.275635,441.397064 
	C525.187439,440.508820 527.701416,439.520294 528.401489,437.889526 
	C528.905518,436.715576 527.230225,433.385986 525.903198,432.959686 
	C524.302368,432.445343 521.908936,433.748199 520.132080,434.749725 
	C519.416016,435.153320 519.425110,436.843384 519.104248,437.947998 
	C517.708862,438.209930 516.313416,438.471863 514.597778,438.890808 
	C514.448608,432.366547 516.700073,428.436768 521.396240,427.299591 
	C525.328857,426.347321 529.140747,426.852325 531.785156,430.298767 
	C534.577942,433.938599 534.910217,438.063690 532.498962,441.969208 
	C530.200195,445.692627 526.622498,447.204376 522.214600,446.323395 
	C521.075195,446.095673 519.954590,445.774078 518.417236,445.433228 
z"/>
<path fill="#1199C1" opacity="1.000000" stroke="none" 
	d="
M556.622314,466.994324 
	C557.055786,470.698120 558.779541,472.358459 563.024170,471.163483 
	C556.172852,477.434418 548.945618,483.694672 541.326111,490.294769 
	C540.248169,489.521942 538.686890,488.402527 536.879639,487.106812 
	C541.527649,478.308716 549.133789,472.916504 556.622314,466.994324 
z"/>
<path fill="#24C8D8" opacity="1.000000" stroke="none" 
	d="
M537.296814,525.228638 
	C537.294312,530.953369 537.294312,536.210205 537.294312,542.362427 
	C534.398743,539.789124 530.788025,538.138245 530.385132,535.907898 
	C529.458740,530.779114 529.910156,525.354858 530.296448,520.086792 
	C530.352966,519.316772 533.099121,518.319214 534.637390,518.250549 
	C535.487671,518.212708 536.783691,519.741760 537.205383,520.826294 
	C537.652466,521.976135 537.301697,523.436218 537.296814,525.228638 
z"/>
<path fill="#1199C1" opacity="1.000000" stroke="none" 
	d="
M593.965820,447.315369 
	C599.020996,446.941223 597.797607,450.610779 598.097778,453.790466 
	C594.603027,458.385071 591.075745,462.549194 587.238281,466.843201 
	C585.152283,465.640778 583.376404,464.308441 581.234253,462.952057 
	C585.170044,457.819275 589.472107,452.710571 593.965820,447.315369 
z"/>
<path fill="#24C8D8" opacity="1.000000" stroke="none" 
	d="
M533.112671,497.250793 
	C536.609802,497.214386 538.116821,498.428070 537.415833,501.838440 
	C536.957214,504.069244 537.008423,506.404846 536.810669,508.960297 
	C534.492432,508.960297 532.403809,508.960297 529.717102,508.960297 
	C531.113159,504.987366 527.375549,500.203949 533.112671,497.250793 
z"/>
<path fill="#15ACCA" opacity="1.000000" stroke="none" 
	d="
M556.395508,580.963989 
	C556.272644,579.418518 556.529236,577.869812 557.061829,576.145386 
	C557.150208,577.633423 556.962646,579.297119 556.395508,580.963989 
z"/>
<path fill="#15ACCA" opacity="1.000000" stroke="none" 
	d="
M550.098267,580.295532 
	C551.218384,580.167358 552.338135,580.330811 553.710693,580.720032 
	C552.674988,580.826294 551.386475,580.706726 550.098267,580.295532 
z"/>
<path fill="#14A4C8" opacity="1.000000" stroke="none" 
	d="
M610.155518,413.254639 
	C610.927124,413.457581 611.889404,413.902222 612.921631,414.683990 
	C612.109863,414.512848 611.227966,414.004578 610.155518,413.254639 
z"/>
<path fill="#14A4C8" opacity="1.000000" stroke="none" 
	d="
M605.597046,411.437378 
	C606.493103,411.460327 607.617737,411.735291 608.874268,412.345337 
	C607.945984,412.350067 606.885864,412.019745 605.597046,411.437378 
z"/>
<path fill="#1199C1" opacity="1.000000" stroke="none" 
	d="
M627.758667,437.303162 
	C629.437134,439.570465 630.857483,441.604706 632.638550,444.155518 
	C626.993225,444.930603 625.716248,441.968750 625.217590,438.367767 
	C625.173218,438.046722 626.702209,437.507812 627.758667,437.303162 
z"/>
<path fill="#171A1F" opacity="1.000000" stroke="none" 
	d="
M499.286377,572.085815 
	C498.818787,568.612976 498.472961,565.119812 498.924835,561.733093 
	C499.800598,555.169067 504.375671,551.950989 510.684753,550.165283 
	C523.447266,550.611145 528.281372,557.366638 526.333435,572.113647 
	C517.538757,572.113647 508.653656,572.113647 499.286377,572.085815 
z"/>
<path fill="#171A1F" opacity="1.000000" stroke="none" 
	d="
M508.591614,601.489258 
	C508.284912,599.292908 508.280151,597.218750 507.342072,595.734314 
	C505.046844,592.102417 504.885193,588.736389 508.192871,585.946411 
	C511.246033,583.371094 514.746216,583.515747 517.647705,586.363464 
	C520.471985,589.135254 520.380066,591.981873 518.575256,595.773621 
	C517.155029,598.757446 517.877563,602.761230 517.618530,606.771851 
	C514.874634,606.771851 511.204651,606.771851 507.359406,606.771851 
	C507.742126,605.084229 508.105530,603.481934 508.591614,601.489258 
z"/>
<path fill="#171A1F" opacity="1.000000" stroke="none" 
	d="
M607.578369,683.950317 
	C615.472229,677.262451 624.272766,679.629089 626.855225,689.038635 
	C619.765503,689.038635 612.757996,689.038635 605.010742,689.038635 
	C605.937561,687.095398 606.616699,685.671570 607.578369,683.950317 
z"/>
<path fill="#171A1F" opacity="1.000000" stroke="none" 
	d="
M352.842285,696.765015 
	C352.182587,703.731506 347.031006,707.647095 340.862671,705.699585 
	C339.018402,705.117188 336.867981,702.567688 336.655731,700.713623 
	C336.495728,699.315674 339.038391,696.469604 340.665100,696.231873 
	C344.618347,695.654053 348.738800,696.220276 352.842285,696.765015 
z"/>
<path fill="#171A1F" opacity="1.000000" stroke="none" 
	d="
M660.837158,706.007019 
	C656.914429,705.988464 653.287781,705.481689 653.246460,701.107849 
	C653.202637,696.471741 656.963257,695.871399 660.655212,695.819885 
	C663.587341,695.778992 666.520508,695.811646 669.433411,695.811646 
	C669.714172,702.527649 668.102783,704.460388 660.837158,706.007019 
z"/>
<path fill="#171A1F" opacity="1.000000" stroke="none" 
	d="
M549.007690,412.090698 
	C552.004272,414.570251 552.909058,417.073212 549.846802,419.719055 
	C547.438904,421.799530 545.048584,421.065033 543.481934,418.747681 
	C542.730835,417.636688 542.401245,415.006561 543.068726,414.422791 
	C544.542725,413.133636 546.769653,412.705322 549.007690,412.090698 
z"/>
<path fill="#171A1F" opacity="1.000000" stroke="none" 
	d="
M453.504242,559.944702 
	C449.998627,560.663330 447.527466,559.404724 447.405975,556.342712 
	C447.341949,554.729980 449.169281,552.128662 450.685211,551.632996 
	C452.098419,551.170837 455.565918,552.671021 455.751617,553.725891 
	C456.080048,555.591492 454.603821,557.774658 453.504242,559.944702 
z"/>
<path fill="#171A1F" opacity="1.000000" stroke="none" 
	d="
M519.257324,438.174316 
	C519.425110,436.843384 519.416016,435.153320 520.132080,434.749725 
	C521.908936,433.748199 524.302368,432.445343 525.903198,432.959686 
	C527.230225,433.385986 528.905518,436.715576 528.401489,437.889526 
	C527.701416,439.520294 525.187439,440.508820 523.275635,441.397064 
	C522.724792,441.652954 521.574158,440.617950 520.390503,440.032867 
	C519.858398,439.394196 519.634338,438.897461 519.257324,438.174316 
z"/>
<path fill="#171A1F" opacity="1.000000" stroke="none" 
	d="
M601.832153,424.974426 
	C603.300903,426.795715 605.150085,428.542847 605.211243,430.350403 
	C605.250732,431.520020 602.726196,433.660370 601.256592,433.745667 
	C599.817261,433.829193 597.413879,432.155365 596.917297,430.734375 
	C595.632874,427.059052 598.029236,425.392212 601.832153,424.974426 
z"/>
<path fill="#171A1F" opacity="1.000000" stroke="none" 
	d="
M576.425781,420.518311 
	C573.258423,419.039154 571.882996,416.768951 573.608276,414.066010 
	C574.455139,412.739288 577.124023,411.357391 578.337158,411.786163 
	C579.909607,412.341949 581.697449,414.584991 581.884949,416.269440 
	C582.239624,419.456757 579.892639,420.810120 576.425781,420.518311 
z"/>
</svg>